<?xml version="1.0" encoding="utf-8"?><!-- Uploaded to: SVG Repo, www.svgrepo.com, Generator: SVG Repo Mixer Tools -->
<svg fill="#000000" width="800px" height="800px" viewBox="0 0 24 24" id="approved-file-3" data-name="Flat Color" xmlns="http://www.w3.org/2000/svg" class="icon flat-color"><path id="primary" d="M20,2H9a1,1,0,0,0-.71.29l-2,2A1,1,0,0,0,6,5v8a6.5,6.5,0,0,1,6,9h8a2,2,0,0,0,2-2V4A2,2,0,0,0,20,2Z" style="fill: rgb(0, 0, 0);"></path><path id="secondary" d="M5,22a1,1,0,0,1-.71-.29l-2-2a1,1,0,0,1,1.42-1.42L5,19.59l3.29-3.3a1,1,0,0,1,1.42,1.42l-4,4A1,1,0,0,1,5,22ZM8,5A1,1,0,0,0,9,4V2a1,1,0,0,0-.71.29l-2,2A1,1,0,0,0,6,5Zm11,8a1,1,0,0,0-1-1H14a1,1,0,0,0,0,2h4A1,1,0,0,0,19,13Zm0-4a1,1,0,0,0-1-1H10a1,1,0,0,0,0,2h8A1,1,0,0,0,19,9Z" style="fill: rgb(44, 169, 188);"></path></svg>